<svg width="1153" height="490" viewBox="0 0 1153 490" fill="none" xmlns="http://www.w3.org/2000/svg">
<path fill-rule="evenodd" clip-rule="evenodd" d="M0 98V90V78C0 78 7.52699 80.9652 76.7753 83.1918C76.2598 72.6513 72.4525 59.4539 63 43.421C67.9463 49.4422 74.8788 59.5031 80.4829 71.0452C87.9489 42.314 106.519 13.9568 118 0C97.4814 34.756 94.5864 60.6718 98.7484 78.5484C101.072 59.8731 106.889 43.6844 110.778 35.7018C104.811 53.6028 103.712 70.3934 104.71 83.9608C106.004 83.9912 107.315 84.0213 108.641 84.0511C112.542 74.6014 118.088 65.7362 121.972 60.5C118.864 70.2695 117.121 78.0568 116.326 84.2167C118.973 84.2715 121.681 84.325 124.449 84.3774C124.487 68.2305 120.974 47.8171 109.972 25C117.345 37.9025 128.414 61.992 132.387 84.5211C133.49 84.5402 134.603 84.5591 135.725 84.5778C133.986 68.2665 140.999 49.7 145.972 40.5C138.541 60.8477 137.88 75.032 140.405 84.6539C218.837 85.8962 340.717 86.181 529.875 83.8799C533.382 71.7267 541.024 59.1695 545.972 52.5C541.426 66.7902 539.801 76.8392 539.788 83.7577C542.573 83.7229 545.371 83.6876 548.184 83.6517C549.404 66.5738 546.699 43.3953 533.972 17C542.117 31.2537 554.773 59.1601 557.389 83.533L561.062 83.4849C558.514 74.7523 559.276 64.7559 561.385 55.6087C559.626 51.7443 557.513 47.6828 555 43.421C557.078 45.9505 559.506 49.1928 562.039 52.9583C564.213 44.6852 567.372 37.3116 569.972 32.5C566.742 41.3456 564.791 49.0265 563.825 55.674C566.772 60.2626 569.782 65.4818 572.483 71.0451C579.949 42.314 598.519 13.9568 610 0C589.481 34.756 586.586 60.6719 590.748 78.5485C591.515 72.3899 592.661 66.5018 593.992 61.0891C593.419 58.1585 592.521 54.89 591.225 51.2511C592.261 53.2163 593.466 55.9845 594.481 59.1557C597.107 49.031 600.325 40.7351 602.778 35.7018C598.865 47.4379 597.046 58.6968 596.538 68.883C596.757 71.253 596.742 73.6342 596.387 75.9103C596.404 78.3539 596.494 80.7197 596.643 82.998L597.503 82.9858C597.503 69.1084 605.17 51.4971 609.902 43C602.155 59.4867 601.565 73.6159 603.025 82.9077L606.36 82.8608C607.341 79.607 607.206 73.2795 603.676 61.8977C606.803 66.2224 612.004 75.1976 612.875 82.7698C846.588 79.5164 979.006 79.0853 1054.02 79.6587C1054.53 71.6473 1053.81 61.8481 1050.33 51.4211C1052.67 56.2106 1056.16 65.9239 1057.55 77.1291C1060.05 66.4031 1058.31 50.8536 1046 30C1052.89 38.3741 1064.03 55.3884 1068.51 72.6271C1071.87 65.7019 1076.03 59.6653 1079 56.0526C1073.36 65.6203 1071.07 73.5051 1070.74 79.8123C1154.28 80.7213 1152 83 1152 83V90V101.5V490H0V98ZM567.036 83.4058L568.784 83.3824C568.482 76.7094 566.858 68.9655 563.31 60.1049C562.422 70.504 564.132 78.0618 567.036 83.4058Z" fill="#FFA75A"/>
</svg>
