<svg width="40" height="40" viewBox="0 0 40 40" fill="none" xmlns="http://www.w3.org/2000/svg">
<path fill-rule="evenodd" clip-rule="evenodd" d="M20 40C31.0457 40 40 31.0457 40 20C40 8.9543 31.0457 0 20 0C8.9543 0 0 8.9543 0 20C0 31.0457 8.9543 40 20 40ZM7.23015 11.0983C8.0178 10.3951 9.08609 10 10.2 10H29.8C30.9139 10 31.9822 10.3951 32.7699 11.0983C33.5575 11.8016 34 12.7554 34 13.75V26.25C34 27.2446 33.5575 28.1984 32.7699 28.9017C31.9822 29.6049 30.9139 30 29.8 30H10.2C9.08609 30 8.0178 29.6049 7.23015 28.9017C6.4425 28.1984 6 27.2446 6 26.25V13.75C6 12.7554 6.4425 11.8016 7.23015 11.0983ZM20 18.4375L28.862 12.5H11.138L20 18.4375ZM9.21005 27.1339C9.4726 27.3683 9.8287 27.5 10.2 27.5H29.8C30.1713 27.5 30.5274 27.3683 30.79 27.1339C31.0525 26.8995 31.2 26.5815 31.2 26.25V14.0625L20.84 21C20.5977 21.1623 20.3029 21.25 20 21.25C19.6971 21.25 19.4023 21.1623 19.16 21L8.8 14.0625V26.25C8.8 26.5815 8.9475 26.8995 9.21005 27.1339Z" fill="black"/>
</svg>
