<svg width="40" height="40" viewBox="0 0 40 40" fill="none" xmlns="http://www.w3.org/2000/svg">
<path d="M20 0C8.95417 0 0 8.95417 0 20C0 31.0458 8.95417 40 20 40C31.0458 40 40 31.0458 40 20C40 8.95417 31.0458 0 20 0ZM29.1688 16.1458C28.1104 22.2208 22.1938 27.3687 20.4167 28.5437C18.6375 29.7146 17.0125 28.0708 16.425 26.8271C15.75 25.4062 13.7312 17.7167 13.2021 17.0771C12.6729 16.4396 11.0854 17.7167 11.0854 17.7167L10.3167 16.6875C10.3167 16.6875 13.5396 12.7646 15.9917 12.2771C18.5917 11.7562 18.5875 16.3417 19.2125 18.8896C19.8187 21.3542 20.225 22.7625 20.7521 22.7625C21.2812 22.7625 22.2917 21.3917 23.3958 19.2833C24.5042 17.175 23.35 15.3125 21.1854 16.6375C22.05 11.3458 30.2271 10.0708 29.1688 16.1458Z" fill="black"/>
</svg>
